<svg width="200" height="200" viewBox="0 0 200 200" fill="none" xmlns="http://www.w3.org/2000/svg">
<path d="M70.8337 183.333C86.9337 183.333 100 170.888 100 155.555V127.777H70.8337C54.7337 127.777 41.667 140.222 41.667 155.555C41.667 170.888 54.7337 183.333 70.8337 183.333Z" fill="#0ACF83"/>
<path d="M41.667 99.9994C41.667 84.6661 54.7337 72.2217 70.8337 72.2217H100V127.777H70.8337C54.7337 127.777 41.667 115.333 41.667 99.9994Z" fill="#A259FF"/>
<path d="M41.6689 44.4448C41.6689 29.1114 54.7356 16.667 70.8356 16.667H100.002V72.2225H70.8356C54.7356 72.2225 41.6689 59.7781 41.6689 44.4448Z" fill="#F24E1E"/>
<path d="M100 16.667H129.167C145.267 16.667 158.333 29.1114 158.333 44.4448C158.333 59.7781 145.267 72.2225 129.167 72.2225H100V16.667Z" fill="#FF7262"/>
<path d="M158.333 99.9994C158.333 115.333 145.267 127.777 129.167 127.777C113.067 127.777 100 115.333 100 99.9994C100 84.6661 113.067 72.2217 129.167 72.2217C145.267 72.2217 158.333 84.6661 158.333 99.9994Z" fill="#1ABCFE"/>
</svg>
